<?xml version="1.0" standalone="no"?>
<!DOCTYPE svg PUBLIC "-//W3C//DTD SVG 20010904//EN"
 "http://www.w3.org/TR/2001/REC-SVG-20010904/DTD/svg10.dtd">
<svg version="1.0" xmlns="http://www.w3.org/2000/svg"
 width="512.000000pt" height="512.000000pt" viewBox="0 0 512.000000 512.000000"
 preserveAspectRatio="xMidYMid meet">

<g transform="translate(0.000000,512.000000) scale(0.100000,-0.100000)"
fill="#000000" stroke="none">
<path d="M634 4915 c-161 -35 -311 -155 -384 -306 -152 -318 2 -672 345 -795
40 -14 95 -19 278 -23 l228 -6 38 -95 c71 -175 154 -303 286 -439 98 -102 209
-190 308 -246 l64 -35 -18 -78 c-33 -137 -18 -356 27 -389 46 -33 122 12 110
65 -22 92 -14 308 12 334 4 4 37 -2 72 -13 36 -11 86 -25 112 -30 l48 -11 -7
-41 c-21 -117 1 -326 38 -366 26 -27 73 -27 100 0 22 22 22 17 -1 161 -9 58
-10 96 -2 149 6 39 12 72 14 74 2 2 55 0 119 -2 l117 -6 0 -111 c0 -116 25
-244 58 -293 22 -35 58 -49 89 -35 41 19 48 54 25 122 -27 81 -41 187 -33 260
l6 60 311 0 c349 0 387 -5 509 -66 50 -26 95 -59 148 -113 228 -228 235 -530
25 -950 -45 -88 -179 -294 -234 -360 l-29 -34 -74 31 c-239 99 -561 124 -857
65 -65 -12 -87 -21 -102 -41 -25 -31 -25 -53 -1 -170 29 -140 86 -250 177
-339 l73 -73 -46 -77 c-81 -138 -163 -354 -163 -433 0 -73 60 -85 280 -56 413
55 701 247 868 577 l47 92 110 66 c964 577 1398 1456 1125 2274 -73 217 -184
392 -359 568 -220 219 -436 339 -744 412 -91 21 -99 21 -1385 24 l-1292 4 -24
-26 c-23 -25 -26 -25 -172 -25 -123 0 -156 4 -189 19 -154 71 -150 280 7 346
32 13 106 15 513 15 l476 0 24 25 c32 31 32 59 0 91 l-25 25 -502 -3 c-491 -3
-504 -4 -550 -25 -66 -30 -133 -96 -165 -162 -24 -48 -28 -68 -28 -141 0 -73
4 -93 28 -141 32 -66 99 -132 165 -162 42 -20 68 -22 233 -25 l187 -4 6 -30
c14 -72 25 -68 -167 -68 -247 0 -334 27 -438 137 -224 237 -111 625 206 708
50 13 155 15 685 15 l627 0 21 23 c28 30 28 68 -1 95 l-23 22 -635 -1 c-486 0
-648 -4 -695 -14z m2538 -952 c9 -344 -30 -800 -83 -970 l-11 -33 -338 0
c-369 0 -493 9 -633 44 -337 86 -636 326 -792 636 -56 111 -90 210 -110 312
-9 46 -18 93 -21 106 l-4 22 994 0 995 0 3 -117z m558 88 c223 -51 461 -173
601 -308 35 -33 36 -36 27 -76 -53 -248 -213 -551 -378 -717 -68 -69 -217
-180 -242 -180 -5 0 -32 17 -61 39 -117 86 -243 137 -372 148 -41 3 -75 9 -75
12 0 3 9 53 20 111 40 204 51 339 57 674 l6 329 166 -6 c111 -4 194 -12 251
-26z m840 -580 c59 -88 134 -249 164 -353 77 -267 71 -564 -17 -850 l-22 -73
-84 -42 c-131 -65 -198 -78 -391 -77 -116 0 -178 5 -210 15 l-45 15 3 84 c5
141 -32 286 -103 405 -20 32 -34 59 -32 61 2 2 30 21 63 42 234 154 448 457
555 788 l33 101 21 -26 c12 -14 41 -55 65 -90z m9 -1518 c-191 -318 -454 -586
-799 -814 -135 -89 -240 -149 -263 -149 -46 0 -87 42 -87 89 0 18 8 29 129
177 139 170 274 408 340 599 17 50 33 95 36 102 3 9 17 8 57 -3 84 -24 325
-30 429 -10 48 9 104 23 125 30 56 21 58 20 33 -21z m-1510 -693 c80 -16 235
-63 249 -75 1 -1 -5 -18 -13 -38 -31 -73 -13 -158 46 -222 22 -24 53 -48 69
-55 l29 -12 -21 -42 c-101 -201 -313 -366 -559 -436 -74 -21 -279 -53 -288
-45 -7 7 38 124 81 210 22 44 65 115 94 157 76 109 72 144 -18 181 -51 21
-122 90 -157 151 -29 51 -71 173 -71 206 0 18 38 28 170 44 75 9 292 -4 389
-24z"/>
<path d="M1967 3999 c-91 -48 -123 -179 -64 -267 34 -53 90 -82 157 -82 67 0
123 29 157 82 40 59 40 147 0 206 -51 78 -165 106 -250 61z m131 -131 c7 -7
12 -21 12 -33 0 -28 -19 -45 -50 -45 -31 0 -50 17 -50 45 0 28 19 45 50 45 14
0 31 -5 38 -12z"/>
<path d="M2167 3205 c-38 -38 -29 -97 18 -115 42 -16 237 -32 339 -29 88 4
100 6 117 28 24 29 24 66 1 89 -16 16 -42 20 -183 26 -90 3 -189 9 -220 12
-44 5 -59 3 -72 -11z"/>
</g>
</svg>
